<?xml version="1.0" encoding="utf-8"?>
<!-- Generator: Adobe Illustrator 24.1.0, SVG Export Plug-In . SVG Version: 6.00 Build 0)  -->
<svg version="1.1"
	 id="svg2" xmlns:cc="http://creativecommons.org/ns#" xmlns:dc="http://purl.org/dc/elements/1.1/" xmlns:rdf="http://www.w3.org/1999/02/22-rdf-syntax-ns#" xmlns:svg="http://www.w3.org/2000/svg"
	 xmlns="http://www.w3.org/2000/svg" xmlns:xlink="http://www.w3.org/1999/xlink" x="0px" y="0px" viewBox="0 0 256 256"
	 style="enable-background:new 0 0 256 256;" xml:space="preserve">
<style type="text/css">
	.st0{fill:url(#SVGID_1_);}
</style>
<linearGradient id="SVGID_1_" gradientUnits="userSpaceOnUse" x1="69.6586" y1="186.6791" x2="186.5799" y2="69.7578">
	<stop  offset="0" style="stop-color:#63B132"/>
	<stop  offset="5.241291e-02" style="stop-color:#56AD3F"/>
	<stop  offset="0.2608" style="stop-color:#289E6C"/>
	<stop  offset="0.421" style="stop-color:#0B9488"/>
	<stop  offset="0.5127" style="stop-color:#009193"/>
	<stop  offset="0.6022" style="stop-color:#088F9A"/>
	<stop  offset="0.7448" style="stop-color:#208BAC"/>
	<stop  offset="0.9217" style="stop-color:#4584C9"/>
	<stop  offset="1" style="stop-color:#5881D8"/>
</linearGradient>
<path class="st0" d="M145.5,164.7c0,1.4-0.2,2.8,0.1,3.9c-9,3.8-21.9,6.6-29,0.2c-1.4-1.4,4.3-7.9,4.3-12.9c0.7-6.4,1.4-13.6,5-19.3
	c1.4,10.7,12.2,11.4,17.9,19.3C145.2,158.8,145.2,161.7,145.5,164.7z M173.2,178.8c-2.5,0-4.8-0.1-7-0.4c-5.8-0.7-10.6-1.6-14.7-3.1
	c-7,3.5-14.9,5.5-23.3,5.5c-26.6,0-48.6-19.8-52-45.4c-0.3-2.3-0.5-4.7-0.5-7.1c-1.2-15.2,7.4-28.7,17.7-39.3
	c-1.3-0.5-2.8-0.8-4.3-1c-1.5-0.2-3.1-0.3-4.6-0.3c-15.4,0.1-31.7,8.7-38.5,31.7c-0.6,3.4-0.5,5.9-0.5,8.9c0,45.7,37,82.7,82.7,82.7
	c28,0,52.7-13.9,67.6-35.1C187.7,177.8,179.9,178.7,173.2,178.8z M155.2,157.4c0,1.4,2.1,3.6,2.9,2.9c11.4-7.9,18.6-25.7,4.3-35
	c-8.6-5.7-14.3,6.4-22.8,8.2c-2.2,0.7-4.2,1-5.9,0.8c3.6,6,9.4,8.2,15.8,11C154.5,146.6,155.2,152.4,155.2,157.4z M104.4,165.2
	c5.7-15.7,25.7-32.2,12.9-47.2c-6.4-7.9-12.2-15-17-23.4C79.4,112.3,79.4,150.2,104.4,165.2z M171.9,120.8L171.9,120.8
	c-1.7-10.6-7.4-19.9-16.7-26.4c-13.6-9.3-30-15-43.6-5.7c-2.9,2.1,0,7.1,1.4,10.7c5,10.7,12.2,20,19.3,27.9c4.3,5,12.9-5,19.3-10
	c7.1-5.7,16.4,0.7,20.7,7.9C172.3,123.8,172.3,122.3,171.9,120.8z M210.1,138.8c0.4-3.5,0.7-7,0.7-10.5c0-45.7-37-82.7-82.7-82.7
	c-27.7,0-52.2,13.6-67.2,34.5c7.8-4.9,15.8-6.7,22.7-6.6c9.6,0,17.2,3,20.8,5c0.9,0.5,1.7,1,2.5,1.6c4.9-2.1,10.1-3.6,15.6-4.1
	c1.8-0.2,3.7-0.3,5.6-0.3c19.2-1.2,36.4,10.9,46.4,27.4c12.2,20,7.1,46.5-9.4,62.5c2.3,0.3,4.8,0.5,7.4,0.5c9.2,0,19.1-2,26.5-8.3
	C203.8,153.7,207.9,147.7,210.1,138.8z"/>
</svg>
